<?xml version="1.0" encoding="UTF-8"?>
<svg viewBox="0 0 123.03 183.15" xmlns="http://www.w3.org/2000/svg">
 <g fill="#216ab2" stroke="#fff">
  <g stroke-dashoffset=".7" stroke-linecap="round" stroke-linejoin="bevel">
   <path d="m41.189 119.69c-23.087 0-39.301 6.2477-39.502 13.946l-1.0027 38.368c4.6441 6.0166 21.026 10.467 40.505 10.467 19.48 0 35.861-4.45 40.505-10.467 0 0-1.0028-37.328-1.0028-37.787 0-7.7014-16.416-14.528-39.502-14.528z" stroke-width="1.368"/>
   <path d="m75.522 134a36.171 12.057 0 1 1 -72.343 0 36.171 12.057 0 1 1 72.343 0z" stroke-width="5.5"/>
  </g>
  <g stroke-width="1.368">
   <path d="m44.78 126.58l-6.4343-29.26 16.188 32.447 9.5705 5.7952-17.72-42.261-12.057-4.019 2.4762 35.339 7.9771 1.959z" fill-rule="evenodd"/>
   <g stroke-dashoffset=".7" stroke-linecap="round" stroke-linejoin="bevel">
    <path d="m47.88 2.1073c-22.074 11.176-36.405 35.76-35.14 60.488 0.13565 5.3247 0.99051 10.587 2.4789 15.658l-12.2 7.0404c-0.28632 0.16528-0.39157 0.51819-0.23315 0.7926l15.006 25.986c0.15845 0.27441 0.5141 0.36731 0.80038 0.20203l12.224-7.0637c6.306 6.6477 13.969 11.994 22.535 15.394 19.254 7.9854 42.329 5.9762 59.812-5.4163-21.761-37.694-43.522-75.387-65.283-113.08z"/>
    <path d="m107.42 43.274c18.04 31.247 20.002 63.927 4.3785 72.948-15.623 9.0202-42.945-9.0188-60.985-40.266s-20.002-63.927-4.3785-72.948c15.623-9.0202 42.945 9.0188 60.985 40.266z"/>
   </g>
   <g fill-rule="evenodd">
    <path d="m101.3 39.818l-12.249 5.8889 6.078 8.0055 8.8357-9.8015-2.6651-4.0929z"/>
    <path d="m53.698 61.772c-1.4862 1.8232-1.0111 6.0368 1.29 10.086 2.5957 4.5681 6.5331 7.2012 8.781 5.8825l19.132-16.326c0.52396-1.2946 0.15115-3.5591-1.0724-5.7504-1.4563-2.6081-3.6035-4.2002-5.0044-3.7999l-23.126 9.9078z"/>
    <path d="m14.248 139.44l15.548-37.877 2.2635 44.063 13.283 1.0365-11.364-47.894c-1.6068-5.9968-5.8331-7.5109-7.7307-4.2241l-20.009 39.412 8.0086 5.4843z"/>
    <path d="m108.9 53.864l-24.459 50.607 10.385 4.4749 19.877-52.997-5.8033-2.0853z"/>
    <path d="m95.096 27.523l-51.68 3.0469-0.3163 10.847 52.53-9.091-0.5336-4.8034z"/>
   </g>
  </g>
  <path d="m116.32 35.728a9.5716 19.143 0 1 1 -19.143 11.052 9.5716 19.143 0 1 1 19.143 -11.052z" stroke-dashoffset=".7" stroke-linecap="round" stroke-linejoin="bevel" stroke-width="5.5"/>
 </g>
</svg>
